# xmcd
#
# Track frame offsets:
#	150
#	10195
#	19913
#	32073
#	41637
#	51058
#	61296
#	71286
#	81120
#	92244
#	103467
#	114970
#	123708
#	130047
#	139114
#	151986
#	162760
#	172306
#	182574
#	192439
#
# Disc length: 2714 seconds
#
# Revision: 1
# Processed by: cddbd v1.5.2PL0 Copyright (c) Steve Scherf et al.
# Submitted via: audiograbber 1.83.01
#
DISCID=130a9814
DTITLE=Roy Orbison - Lovestruck
DYEAR=2007
DGENRE=
TTITLE0=Ooby Dooby
TTITLE1=Go! Go! Go!
TTITLE2=Trying To Get To You (Alt)
TTITLE3=You're My Baby
TTITLE4=Rockhouse
TTITLE5=Domino
TTITLE6=Sweet And Easy To Love
TTITLE7=Devil Doll
TTITLE8=The Cause Of It All
TTITLE9=Fools Hall Of Fame
TTITLE10=I Like Love
TTITLE11=Mean Little Mama (Alt)
TTITLE12=Lovestruck
TTITLE13=Claudette (2)
TTITLE14=It's Too Late
TTITLE15=I Never Knew
TTITLE16=You're Gonna Cry (Alt)
TTITLE17=I Was A Fool (ft. Ken Cook)
TTITLE18=Find My Baby For Me (ft. Sonny Burgess)
TTITLE19=Rockabilly Gal (ft. Hayden Thompson)
EXTD=
EXTT0=
EXTT1=
EXTT2=
EXTT3=
EXTT4=
EXTT5=
EXTT6=
EXTT7=
EXTT8=
EXTT9=
EXTT10=
EXTT11=
EXTT12=
EXTT13=
EXTT14=
EXTT15=
EXTT16=
EXTT17=
EXTT18=
EXTT19=
PLAYORDER=
